<svg width="287" height="126" viewBox="0 0 287 126" fill="none" xmlns="http://www.w3.org/2000/svg">
<path d="M0 107.62C6.52604 107.62 12.151 107.245 16.8594 106.5C21.5729 105.755 25.4219 104.146 28.4063 101.672C31.3906 99.1979 33.5833 95.5156 34.9844 90.6146C36.3854 85.7188 37.0833 79.1615 37.0833 70.9531V0H55V70.9531C55 82.5208 53.8542 91.9219 51.5677 99.151C49.2813 106.385 45.8542 111.932 41.2813 115.807C36.7083 119.677 30.9948 122.313 24.1406 123.714C17.2813 125.115 9.23437 125.813 0 125.813V107.62Z" fill="black"/>
<path d="M180.975 125.813V0H200.146V52.901H266.902V0H286.074V125.813H266.902V71.3698H200.146V125.813H180.975Z" fill="black"/>
<mask id="mask0_104_2827" style="mask-type:luminance" maskUnits="userSpaceOnUse" x="22" y="2" width="165" height="124">
<path d="M22.1523 2.3689H186.152V125.369H22.1523V2.3689Z" fill="white"/>
</mask>
<g mask="url(#mask0_104_2827)">
<path d="M126.507 2.38456C125.903 2.36373 125.304 2.96269 124.699 3.07727C124.012 3.20227 122.179 6.51998 121.949 7.16061C121.715 7.79602 120.1 10.2127 120.1 10.2127C120.1 10.2127 118.85 12.0148 117.929 13.671C117.012 15.3325 115.621 15.8377 115.621 15.8377C115.621 15.8377 114.71 16.3429 113.33 16.5981C111.955 16.8533 109.423 17.8637 108.387 17.7335C107.356 17.6085 103.923 19.4002 102.543 20.1658C101.168 20.9314 99.4494 22.5929 98.6473 23.3585C97.8452 24.1189 96.6786 24.3846 96.6786 24.3846C96.6786 24.3846 94.0431 25.5252 93.5848 25.6554C93.1265 25.7804 92.2098 27.046 92.439 27.6866C92.6681 28.3221 91.5171 29.0877 91.5171 29.0877C91.5171 29.0877 89.689 30.2283 88.8869 31.1189C88.689 31.3377 88.6004 31.6294 88.5848 31.9471L25.5379 14.9471C25.5379 14.9471 24.84 11.1189 24.1525 11.3741C23.4598 11.6294 22.2046 12.6346 22.2046 13.27C22.2046 13.9106 22.5431 16.7283 22.5431 16.7283C22.5431 16.7283 24.3817 17.6137 24.6108 16.9731C24.84 16.3429 88.4181 33.3846 88.8661 33.5096C89.0171 33.9731 89.1838 34.3898 89.2254 34.5773L88.6421 36.4731C88.6421 36.4731 90.3713 36.6189 90.715 37.2544C91.0588 37.895 92.9025 40.046 92.9025 40.046L94.7306 38.9054L96.4598 38.7752C96.4598 38.7752 98.9754 37.2491 99.09 36.2283C99.2046 35.2075 100.595 32.796 100.595 32.796L103.106 32.6606L103.225 35.8481C103.225 35.8481 102.314 36.7439 101.741 36.7439C101.168 36.7439 100.71 37.3741 100.132 38.395C99.5588 39.4158 99.7931 39.9262 99.7931 41.9627C99.7931 44.0044 99.5535 43.7596 98.7463 44.395C97.9442 45.0304 98.8661 46.5616 98.8661 46.5616C98.8661 46.5616 97.9546 49.8689 97.7254 50.8898C97.4963 51.9054 98.8765 55.8689 99.4494 56.8898C100.022 57.9106 102.08 63.895 102.08 63.895L101.397 67.2179C101.397 67.2179 99.4494 67.4731 98.9911 67.2179C98.5275 66.9627 97.2619 69.2491 97.2619 69.2491L65.3452 47.8325L64.6629 49.1033L96.34 72.0616L113.793 84.9366C113.793 84.9366 110.455 87.7335 110.34 87.0981C110.225 86.4627 109.08 84.5408 108.392 84.2856C107.705 84.0304 106.1 87.7283 105.637 87.8585C105.179 87.9835 102.767 89.6398 102.767 89.6398L68.34 76.6346L68.6838 79.5773L116.767 98.5669L148.46 112.843C148.46 112.843 158.33 119.744 160.512 121.655C162.694 123.572 168.085 120.879 168.085 120.879C168.085 120.879 180.361 125.353 182.085 125.228C183.804 125.098 186.1 121.905 186.1 121.905L183.809 121.254C183.809 121.254 178.522 120.254 177.142 120.765C175.767 121.275 167.382 116.681 167.382 116.681L147.293 107.244L125.038 89.2648L126.866 87.0981L133.194 78.421L140.528 70.2752C141.33 69.3846 141.345 69.5044 142.033 68.3585C142.72 67.2075 141.684 66.4366 141.569 65.546C141.455 64.6554 140.996 65.046 140.767 64.4106C140.538 63.77 140.184 62.8741 139.72 62.1085C139.262 61.3429 138.694 61.2231 137.772 60.4575C136.856 59.6919 135.475 59.6919 134.439 59.5669C133.408 59.4366 132.835 58.921 132.835 58.921C132.835 58.921 133.418 58.2908 133.876 57.27C134.335 56.2491 135.475 55.9991 136.048 55.9991C136.621 55.9991 137.324 53.5616 137.554 53.0512C137.783 52.5408 137.903 50.9002 138.017 50.2648C138.132 49.6241 137.423 48.8585 136.85 47.9679C136.278 47.0721 135.715 47.3273 135.142 47.0721C134.569 46.8169 132.949 46.296 131.689 46.4262C130.429 46.5512 128.934 45.6762 127.673 45.8012C126.408 45.9262 125.033 45.145 124.46 45.4002C123.882 45.6554 123.08 43.6294 123.996 42.6085C124.913 41.5929 124.47 41.7023 125.163 40.9366C125.85 40.171 127.335 38.0044 127.793 37.3689C128.251 36.7283 128.142 37.3794 128.715 36.7439C129.288 36.1033 131.231 36.1033 132.153 36.2283C133.069 36.3585 133.996 35.9731 134.804 36.2283C135.606 36.4835 136.522 36.3533 137.554 36.6085C138.585 36.8637 139.85 37.4991 141.569 38.395C143.293 39.2856 144.668 39.0356 145.929 39.421C147.194 39.8012 147.887 39.9158 150.069 40.046C152.246 40.171 152.705 40.5564 153.621 40.5564C154.538 40.5564 156.835 41.4523 156.835 41.4523L159.345 41.3377C159.345 41.3377 160.455 41.2544 161.616 41.1814C161.033 44.3794 151.554 96.4002 151.554 96.4002C151.554 96.4002 148.34 95.8898 148.34 96.4002C148.34 96.9106 148.564 98.7023 149.022 99.2127C149.481 99.7231 150.751 100.103 150.751 100.103L150.288 105.838L151.21 106.082L151.673 100.103L153.283 99.0773C153.283 99.0773 153.611 97.1814 153.038 96.671C152.486 96.1762 162.163 45.0096 162.903 41.1137C163.199 41.0981 163.699 41.0721 163.824 41.0721C164.512 41.0721 164.866 40.6866 165.21 40.1762C165.554 39.671 166.47 38.7856 166.356 38.1502C166.241 37.5096 167.158 37.2544 167.158 37.2544C167.158 37.2544 168.429 36.9887 168.085 35.7179C167.741 34.4419 167.955 35.4731 168.184 34.1971C168.413 32.9262 167.736 33.171 167.158 32.2804C166.585 31.3898 166.007 31.77 165.09 31.3898C164.173 31.0044 163.481 31.2491 162.559 31.1189C161.642 30.9939 161.642 31.5148 160.147 31.3898C158.658 31.2596 158.324 32.4158 158.324 32.4158C158.324 32.4158 154.658 32.0304 153.283 31.9002C151.903 31.7752 150.408 30.6241 149.606 30.1137C148.804 29.6085 147.184 29.8637 146.611 29.2231C146.038 28.5877 144.897 27.9471 144.783 27.4366C144.668 26.9314 138.574 24.1189 138.116 23.3585C137.658 22.5929 136.975 22.7127 136.288 22.3273C135.6 21.9471 132.501 21.4314 131.929 21.3012C131.356 21.1762 131.121 21.5721 131.007 20.6814C130.892 19.7856 131.246 19.52 131.59 18.6241C131.934 17.7335 132.387 17.3533 133.074 16.4627C133.762 15.5721 133.423 14.8221 133.996 13.671C134.574 12.5252 134.106 12.2544 134.22 10.5929C134.335 8.93665 133.986 9.32206 133.757 7.53561C133.528 5.75435 132.725 6.25956 132.153 5.23873C131.574 4.2179 130.778 4.0929 129.397 3.45748C128.022 2.81686 127.455 2.70748 126.767 2.45227C126.684 2.42102 126.59 2.38977 126.507 2.38456ZM117.809 71.6814L122.288 72.0616L124.356 73.8429L119.876 77.0356L117.809 71.6814ZM134.804 101.244L139.965 105.322L134.1 102.78L134.804 101.244ZM159.929 116.546C160.387 116.546 164.751 118.978 164.751 118.978L163.824 120.114L159.929 116.546Z" fill="black"/>
</g>
</svg>
