<svg width="287" height="199" viewBox="0 0 287 199" fill="none" xmlns="http://www.w3.org/2000/svg">
<path d="M0 107.62C6.52604 107.62 12.151 107.245 16.8594 106.5C21.5729 105.755 25.4219 104.146 28.4063 101.672C31.3906 99.1979 33.5833 95.5156 34.9844 90.6146C36.3854 85.7188 37.0833 79.1615 37.0833 70.9531V0H55V70.9531C55 82.5208 53.8542 91.9219 51.5677 99.151C49.2813 106.385 45.8542 111.932 41.2813 115.807C36.7083 119.677 30.9948 122.313 24.1406 123.714C17.2813 125.115 9.23437 125.813 0 125.813V107.62Z" fill="black"/>
<path d="M180.975 125.813V0H200.146V52.901H266.902V0H286.074V125.813H266.902V71.3698H200.146V125.813H180.975Z" fill="black"/>
<mask id="mask0_104_3107" style="mask-type:luminance" maskUnits="userSpaceOnUse" x="22" y="2" width="165" height="124">
<path d="M22.1523 2.3689H186.152V125.369H22.1523V2.3689Z" fill="white"/>
</mask>
<g mask="url(#mask0_104_3107)">
<path d="M126.507 2.38456C125.903 2.36373 125.304 2.96269 124.699 3.07727C124.012 3.20227 122.179 6.51998 121.949 7.16061C121.715 7.79602 120.1 10.2127 120.1 10.2127C120.1 10.2127 118.85 12.0148 117.929 13.671C117.012 15.3325 115.621 15.8377 115.621 15.8377C115.621 15.8377 114.71 16.3429 113.33 16.5981C111.955 16.8533 109.423 17.8637 108.387 17.7335C107.356 17.6085 103.923 19.4002 102.543 20.1658C101.168 20.9314 99.4494 22.5929 98.6473 23.3585C97.8452 24.1189 96.6786 24.3846 96.6786 24.3846C96.6786 24.3846 94.0431 25.5252 93.5848 25.6554C93.1265 25.7804 92.2098 27.046 92.439 27.6866C92.6681 28.3221 91.5171 29.0877 91.5171 29.0877C91.5171 29.0877 89.689 30.2283 88.8869 31.1189C88.689 31.3377 88.6004 31.6294 88.5848 31.9471L25.5379 14.9471C25.5379 14.9471 24.84 11.1189 24.1525 11.3741C23.4598 11.6294 22.2046 12.6346 22.2046 13.27C22.2046 13.9106 22.5431 16.7283 22.5431 16.7283C22.5431 16.7283 24.3817 17.6137 24.6108 16.9731C24.84 16.3429 88.4181 33.3846 88.8661 33.5096C89.0171 33.9731 89.1838 34.3898 89.2254 34.5773L88.6421 36.4731C88.6421 36.4731 90.3713 36.6189 90.715 37.2544C91.0588 37.895 92.9025 40.046 92.9025 40.046L94.7306 38.9054L96.4598 38.7752C96.4598 38.7752 98.9754 37.2491 99.09 36.2283C99.2046 35.2075 100.595 32.796 100.595 32.796L103.106 32.6606L103.225 35.8481C103.225 35.8481 102.314 36.7439 101.741 36.7439C101.168 36.7439 100.71 37.3741 100.132 38.395C99.5588 39.4158 99.7931 39.9262 99.7931 41.9627C99.7931 44.0044 99.5535 43.7596 98.7463 44.395C97.9442 45.0304 98.8661 46.5616 98.8661 46.5616C98.8661 46.5616 97.9546 49.8689 97.7254 50.8898C97.4963 51.9054 98.8765 55.8689 99.4494 56.8898C100.022 57.9106 102.08 63.895 102.08 63.895L101.397 67.2179C101.397 67.2179 99.4494 67.4731 98.9911 67.2179C98.5275 66.9627 97.2619 69.2491 97.2619 69.2491L65.3452 47.8325L64.6629 49.1033L96.34 72.0616L113.793 84.9366C113.793 84.9366 110.455 87.7335 110.34 87.0981C110.225 86.4627 109.08 84.5408 108.392 84.2856C107.705 84.0304 106.1 87.7283 105.637 87.8585C105.179 87.9835 102.767 89.6398 102.767 89.6398L68.34 76.6346L68.6838 79.5773L116.767 98.5669L148.46 112.843C148.46 112.843 158.33 119.744 160.512 121.655C162.694 123.572 168.085 120.879 168.085 120.879C168.085 120.879 180.361 125.353 182.085 125.228C183.804 125.098 186.1 121.905 186.1 121.905L183.809 121.254C183.809 121.254 178.522 120.254 177.142 120.765C175.767 121.275 167.382 116.681 167.382 116.681L147.293 107.244L125.038 89.2648L126.866 87.0981L133.194 78.421L140.528 70.2752C141.33 69.3846 141.345 69.5044 142.033 68.3585C142.72 67.2075 141.684 66.4366 141.569 65.546C141.455 64.6554 140.996 65.046 140.767 64.4106C140.538 63.77 140.184 62.8741 139.72 62.1085C139.262 61.3429 138.694 61.2231 137.772 60.4575C136.856 59.6919 135.475 59.6919 134.439 59.5669C133.408 59.4366 132.835 58.921 132.835 58.921C132.835 58.921 133.418 58.2908 133.876 57.27C134.335 56.2491 135.475 55.9991 136.048 55.9991C136.621 55.9991 137.324 53.5616 137.554 53.0512C137.783 52.5408 137.903 50.9002 138.017 50.2648C138.132 49.6241 137.423 48.8585 136.85 47.9679C136.278 47.0721 135.715 47.3273 135.142 47.0721C134.569 46.8169 132.949 46.296 131.689 46.4262C130.429 46.5512 128.934 45.6762 127.673 45.8012C126.408 45.9262 125.033 45.145 124.46 45.4002C123.882 45.6554 123.08 43.6294 123.996 42.6085C124.913 41.5929 124.47 41.7023 125.163 40.9366C125.85 40.171 127.335 38.0044 127.793 37.3689C128.251 36.7283 128.142 37.3794 128.715 36.7439C129.288 36.1033 131.231 36.1033 132.153 36.2283C133.069 36.3585 133.996 35.9731 134.804 36.2283C135.606 36.4835 136.522 36.3533 137.554 36.6085C138.585 36.8637 139.85 37.4991 141.569 38.395C143.293 39.2856 144.668 39.0356 145.929 39.421C147.194 39.8012 147.887 39.9158 150.069 40.046C152.246 40.171 152.705 40.5564 153.621 40.5564C154.538 40.5564 156.835 41.4523 156.835 41.4523L159.345 41.3377C159.345 41.3377 160.455 41.2544 161.616 41.1814C161.033 44.3794 151.554 96.4002 151.554 96.4002C151.554 96.4002 148.34 95.8898 148.34 96.4002C148.34 96.9106 148.564 98.7023 149.022 99.2127C149.481 99.7231 150.751 100.103 150.751 100.103L150.288 105.838L151.21 106.082L151.673 100.103L153.283 99.0773C153.283 99.0773 153.611 97.1814 153.038 96.671C152.486 96.1762 162.163 45.0096 162.903 41.1137C163.199 41.0981 163.699 41.0721 163.824 41.0721C164.512 41.0721 164.866 40.6866 165.21 40.1762C165.554 39.671 166.47 38.7856 166.356 38.1502C166.241 37.5096 167.158 37.2544 167.158 37.2544C167.158 37.2544 168.429 36.9887 168.085 35.7179C167.741 34.4419 167.955 35.4731 168.184 34.1971C168.413 32.9262 167.736 33.171 167.158 32.2804C166.585 31.3898 166.007 31.77 165.09 31.3898C164.173 31.0044 163.481 31.2491 162.559 31.1189C161.642 30.9939 161.642 31.5148 160.147 31.3898C158.658 31.2596 158.324 32.4158 158.324 32.4158C158.324 32.4158 154.658 32.0304 153.283 31.9002C151.903 31.7752 150.408 30.6241 149.606 30.1137C148.804 29.6085 147.184 29.8637 146.611 29.2231C146.038 28.5877 144.897 27.9471 144.783 27.4366C144.668 26.9314 138.574 24.1189 138.116 23.3585C137.658 22.5929 136.975 22.7127 136.288 22.3273C135.6 21.9471 132.501 21.4314 131.929 21.3012C131.356 21.1762 131.121 21.5721 131.007 20.6814C130.892 19.7856 131.246 19.52 131.59 18.6241C131.934 17.7335 132.387 17.3533 133.074 16.4627C133.762 15.5721 133.423 14.8221 133.996 13.671C134.574 12.5252 134.106 12.2544 134.22 10.5929C134.335 8.93665 133.986 9.32206 133.757 7.53561C133.528 5.75435 132.725 6.25956 132.153 5.23873C131.574 4.2179 130.778 4.0929 129.397 3.45748C128.022 2.81686 127.455 2.70748 126.767 2.45227C126.684 2.42102 126.59 2.38977 126.507 2.38456ZM117.809 71.6814L122.288 72.0616L124.356 73.8429L119.876 77.0356L117.809 71.6814ZM134.804 101.244L139.965 105.322L134.1 102.78L134.804 101.244ZM159.929 116.546C160.387 116.546 164.751 118.978 164.751 118.978L163.824 120.114L159.929 116.546Z" fill="black"/>
</g>
<path d="M26.7905 196.414C27.5457 196.414 28.1916 196.372 28.7332 196.284C29.2801 196.2 29.7228 196.013 30.0666 195.726C30.4103 195.445 30.6655 195.018 30.827 194.45C30.9884 193.888 31.0666 193.133 31.0666 192.185V183.997H33.1343V192.185C33.1343 193.518 33.0041 194.601 32.7384 195.44C32.478 196.273 32.0822 196.914 31.5509 197.357C31.0249 197.805 30.3687 198.112 29.577 198.273C28.7853 198.435 27.8582 198.513 26.7905 198.513V196.414Z" fill="black"/>
<path d="M38.6322 198.513V183.982H36.5332V198.513H38.6322Z" fill="black"/>
<path d="M41.873 198.513V183.982H46.6335L49.3314 196.93H50.3835L53.0293 183.982H57.7272V198.513H55.6283V185.565H54.8522L52.2064 198.513H47.5085L44.8105 185.565H43.972V198.513H41.873Z" fill="black"/>
<path d="M61.4355 198.513V183.982H66.196L68.8939 196.93H69.946L72.5918 183.982H77.2897V198.513H75.1908V185.565H74.4147L71.7689 198.513H67.071L64.373 185.565H63.5345V198.513H61.4355Z" fill="black"/>
<path d="M83.967 193.508L80.1909 183.997H82.3211L85.3263 191.924H86.8576L89.8628 183.997H91.993L88.217 193.508H87.1336V198.529H85.0347V193.508H83.967Z" fill="black"/>
<path d="M102.657 198.513V183.997H104.871V190.101H112.569V183.997H114.782V198.513H112.569V192.232H104.871V198.513H102.657Z" fill="black"/>
<path d="M117.801 198.513L122.113 183.982H126.52L130.827 198.513H128.618L127.181 193.492H121.452L120.014 198.513H117.801ZM122.046 191.378H126.566L124.905 185.565H123.707L122.046 191.378Z" fill="black"/>
<path d="M135.833 183.997H133.734V198.513H143.214V196.383H135.833V183.997Z" fill="black"/>
<path d="M148.85 198.513L144.506 183.982H146.72L150.595 196.93H151.465L155.34 183.982H157.553L153.209 198.513H148.85Z" fill="black"/>
<path d="M158.841 198.513L163.154 183.982H167.56L171.867 198.513H169.659L168.222 193.492H162.492L161.055 198.513H158.841ZM163.086 191.378H167.607L165.945 185.565H164.748L163.086 191.378Z" fill="black"/>
<path d="M183.379 198.529V193.039H176.874V198.513H174.775V183.982H179.91C181.233 183.982 182.348 184.117 183.249 184.388C184.155 184.654 184.837 185.117 185.301 185.768C185.764 186.419 185.994 187.32 185.994 188.471C185.994 189.341 185.863 190.07 185.608 190.648C185.348 191.232 184.968 191.7 184.462 192.055V192.445H185.624V198.529H183.379ZM176.874 190.94H179.91C180.499 190.94 181.041 190.919 181.53 190.878C182.02 190.836 182.442 190.732 182.791 190.581C183.139 190.424 183.41 190.18 183.608 189.841C183.801 189.508 183.895 189.055 183.895 188.471C183.895 187.898 183.801 187.45 183.608 187.122C183.41 186.794 183.139 186.555 182.791 186.404C182.442 186.253 182.02 186.159 181.53 186.112C181.041 186.07 180.499 186.049 179.91 186.049H176.874V190.94Z" fill="black"/>
<path d="M189.387 198.513V183.997H194.247C195.215 183.997 196.106 184.075 196.929 184.232C197.747 184.388 198.455 184.685 199.059 185.122C199.658 185.555 200.127 186.195 200.46 187.034C200.793 187.872 200.96 188.971 200.96 190.325V192.023C200.96 193.388 200.793 194.503 200.46 195.357C200.127 196.211 199.658 196.867 199.059 197.325C198.455 197.784 197.747 198.096 196.929 198.263C196.106 198.43 195.215 198.513 194.247 198.513H189.387ZM191.486 196.607H194.247C195.033 196.607 195.71 196.544 196.273 196.424C196.835 196.299 197.304 196.07 197.668 195.742C198.033 195.414 198.304 194.95 198.476 194.346C198.648 193.747 198.736 192.971 198.736 192.023V190.325C198.736 189.393 198.648 188.633 198.476 188.049C198.304 187.471 198.033 187.023 197.668 186.711C197.304 186.398 196.835 186.185 196.273 186.075C195.71 185.961 195.033 185.904 194.247 185.904H191.486V196.607Z" fill="black"/>
<path d="M209.844 198.674C207.797 198.674 206.292 198.19 205.323 197.221C204.354 196.252 203.87 194.935 203.87 193.268H206.083C206.094 194.44 206.427 195.279 207.083 195.779C207.739 196.279 208.661 196.529 209.844 196.529C211.005 196.529 211.854 196.362 212.385 196.029C212.917 195.695 213.187 195.206 213.187 194.56C213.187 193.904 212.958 193.409 212.5 193.091C212.042 192.768 211.432 192.523 210.667 192.362L208.26 191.893C207.474 191.752 206.771 191.513 206.146 191.169C205.521 190.825 205.031 190.372 204.667 189.81C204.307 189.252 204.13 188.586 204.13 187.81C204.13 187.325 204.239 186.846 204.458 186.372C204.677 185.898 205.01 185.466 205.443 185.081C205.88 184.695 206.422 184.388 207.068 184.159C207.713 183.935 208.458 183.82 209.312 183.82C210.364 183.82 211.25 183.966 211.963 184.247C212.682 184.534 213.255 184.919 213.693 185.398C214.13 185.872 214.443 186.419 214.63 187.029C214.818 187.633 214.911 188.273 214.911 188.94L212.734 188.956C212.734 188.341 212.63 187.805 212.427 187.351C212.224 186.893 211.87 186.539 211.37 186.294C210.87 186.044 210.182 185.919 209.312 185.919C208.224 185.919 207.437 186.101 206.953 186.461C206.469 186.82 206.229 187.273 206.229 187.81C206.229 188.336 206.432 188.799 206.849 189.195C207.26 189.596 207.823 189.867 208.536 190.002L210.927 190.456C212.515 190.737 213.646 191.242 214.312 191.966C214.984 192.695 215.318 193.622 215.318 194.752C215.318 195.237 215.229 195.711 215.052 196.18C214.87 196.648 214.578 197.07 214.161 197.445C213.745 197.825 213.187 198.122 212.484 198.341C211.776 198.565 210.896 198.674 209.844 198.674Z" fill="black"/>
<path d="M224.197 198.674C222.15 198.674 220.645 198.19 219.676 197.221C218.707 196.252 218.223 194.935 218.223 193.268H220.436C220.447 194.44 220.78 195.279 221.436 195.779C222.092 196.279 223.014 196.529 224.197 196.529C225.358 196.529 226.207 196.362 226.738 196.029C227.27 195.695 227.54 195.206 227.54 194.56C227.54 193.904 227.311 193.409 226.853 193.091C226.395 192.768 225.785 192.523 225.02 192.362L222.613 191.893C221.827 191.752 221.124 191.513 220.499 191.169C219.874 190.825 219.384 190.372 219.02 189.81C218.66 189.252 218.483 188.586 218.483 187.81C218.483 187.325 218.592 186.846 218.811 186.372C219.03 185.898 219.363 185.466 219.796 185.081C220.233 184.695 220.775 184.388 221.421 184.159C222.066 183.935 222.811 183.82 223.665 183.82C224.717 183.82 225.603 183.966 226.316 184.247C227.035 184.534 227.608 184.919 228.046 185.398C228.483 185.872 228.796 186.419 228.983 187.029C229.171 187.633 229.264 188.273 229.264 188.94L227.087 188.956C227.087 188.341 226.983 187.805 226.78 187.351C226.577 186.893 226.223 186.539 225.723 186.294C225.223 186.044 224.535 185.919 223.665 185.919C222.577 185.919 221.79 186.101 221.306 186.461C220.822 186.82 220.582 187.273 220.582 187.81C220.582 188.336 220.785 188.799 221.202 189.195C221.613 189.596 222.176 189.867 222.889 190.002L225.28 190.456C226.868 190.737 227.999 191.242 228.665 191.966C229.337 192.695 229.671 193.622 229.671 194.752C229.671 195.237 229.582 195.711 229.405 196.18C229.223 196.648 228.931 197.07 228.514 197.445C228.098 197.825 227.54 198.122 226.837 198.341C226.129 198.565 225.249 198.674 224.197 198.674Z" fill="black"/>
<path d="M238.904 198.789C237.806 198.789 236.842 198.586 236.009 198.19C235.175 197.794 234.477 197.247 233.925 196.549C233.368 195.857 232.951 195.06 232.675 194.154C232.394 193.252 232.253 192.289 232.253 191.263C232.253 190.242 232.394 189.279 232.675 188.372C232.951 187.471 233.368 186.674 233.925 185.987C234.477 185.294 235.175 184.752 236.009 184.357C236.842 183.956 237.806 183.758 238.904 183.758C240.003 183.758 240.967 183.956 241.8 184.357C242.639 184.752 243.332 185.294 243.894 185.987C244.451 186.674 244.873 187.471 245.154 188.372C245.431 189.279 245.571 190.242 245.571 191.263C245.571 192.289 245.431 193.252 245.154 194.154C244.873 195.06 244.451 195.857 243.894 196.549C243.332 197.247 242.639 197.794 241.8 198.19C240.967 198.586 240.003 198.789 238.904 198.789ZM234.384 191.263C234.384 192.362 234.545 193.31 234.868 194.112C235.191 194.914 235.691 195.539 236.363 195.976C237.035 196.419 237.884 196.638 238.904 196.638C239.936 196.638 240.79 196.419 241.457 195.976C242.123 195.539 242.618 194.914 242.941 194.112C243.264 193.31 243.425 192.362 243.425 191.263C243.425 190.18 243.264 189.232 242.941 188.43C242.618 187.627 242.123 187.008 241.457 186.565C240.79 186.127 239.936 185.904 238.904 185.904C237.884 185.904 237.035 186.122 236.363 186.56C235.691 186.992 235.191 187.612 234.868 188.414C234.545 189.216 234.384 190.164 234.384 191.263Z" fill="black"/>
<path d="M248.477 198.513V183.982H252.805L257.612 196.93H258.165V183.982H260.264V198.513H255.889L251.076 185.581H250.576V198.513H248.477Z" fill="black"/>
<path d="M15.0049 168.604V150.943H20.7965L24.0726 166.682H25.3486L28.5674 150.943H34.2757V168.604H31.7236V152.865H30.7861L27.5674 168.604H21.8538L18.5778 152.865H17.557V168.604H15.0049Z" fill="black"/>
<path d="M49.4303 168.937C48.0918 168.937 46.9199 168.698 45.9043 168.214C44.8939 167.729 44.0501 167.062 43.373 166.219C42.7012 165.375 42.196 164.406 41.8522 163.307C41.5137 162.208 41.3418 161.036 41.3418 159.792C41.3418 158.552 41.5137 157.38 41.8522 156.281C42.196 155.182 42.7012 154.214 43.373 153.375C44.0501 152.542 44.8939 151.88 45.9043 151.396C46.9199 150.911 48.0918 150.667 49.4303 150.667C50.7637 150.667 51.9355 150.911 52.9512 151.396C53.9668 151.88 54.8105 152.542 55.4928 153.375C56.1699 154.214 56.6803 155.182 57.0241 156.281C57.3626 157.38 57.5345 158.552 57.5345 159.792C57.5345 161.036 57.3626 162.208 57.0241 163.307C56.6803 164.406 56.1699 165.375 55.4928 166.219C54.8105 167.062 53.9668 167.729 52.9512 168.214C51.9355 168.698 50.7637 168.937 49.4303 168.937ZM43.9355 159.792C43.9355 161.13 44.1283 162.281 44.5241 163.255C44.9147 164.229 45.5189 164.984 46.3366 165.521C47.1543 166.057 48.1855 166.328 49.4303 166.328C50.6855 166.328 51.7168 166.057 52.5293 165.521C53.3418 164.984 53.9408 164.229 54.3366 163.255C54.7272 162.281 54.9251 161.13 54.9251 159.792C54.9251 158.474 54.7272 157.323 54.3366 156.349C53.9408 155.375 53.3418 154.62 52.5293 154.083C51.7168 153.547 50.6855 153.276 49.4303 153.276C48.1855 153.276 47.1543 153.542 46.3366 154.073C45.5189 154.604 44.9147 155.354 44.5241 156.328C44.1283 157.302 43.9355 158.458 43.9355 159.792Z" fill="black"/>
<path d="M71.9803 168.937C70.3345 168.937 68.9595 168.589 67.8709 167.885C66.7772 167.187 65.9595 166.198 65.4178 164.917C64.8761 163.635 64.6001 162.12 64.6001 160.38V150.964H67.1522V160.38C67.1522 161.677 67.2876 162.766 67.5532 163.651C67.8241 164.531 68.3084 165.203 69.0063 165.661C69.7095 166.12 70.6991 166.349 71.9803 166.349C73.2772 166.349 74.272 166.12 74.9751 165.661C75.673 165.203 76.1574 164.531 76.423 163.651C76.6938 162.766 76.8293 161.677 76.8293 160.38V150.964H79.3761V160.38C79.3761 162.12 79.1053 163.635 78.5636 164.917C78.022 166.198 77.2043 167.187 76.1105 167.885C75.0168 168.589 73.6418 168.937 71.9803 168.937Z" fill="black"/>
<path d="M86.4468 168.604V150.943H91.7072L97.5562 166.682H98.2228V150.943H100.775V168.604H95.4572L89.6082 152.885H88.9989V168.604H86.4468Z" fill="black"/>
<path d="M113.614 168.604V153.531H107.843V150.964H121.952V153.531H116.166V168.604H113.614Z" fill="black"/>
<path d="M129.023 168.604L134.263 150.943H139.622L144.861 168.604H142.174L140.424 162.5H133.46L131.716 168.604H129.023ZM134.184 159.932H139.679L137.658 152.865H136.205L134.184 159.932Z" fill="black"/>
<path d="M154.48 168.604V150.943H151.928V168.604H154.48Z" fill="black"/>
<path d="M161.561 168.604V150.943H166.821L172.67 166.682H173.337V150.943H175.889V168.604H170.571L164.722 152.885H164.113V168.604H161.561Z" fill="black"/>
<path d="M182.957 159.833C182.957 158.589 183.118 157.417 183.441 156.318C183.759 155.219 184.243 154.255 184.889 153.417C185.54 152.578 186.347 151.917 187.316 151.432C188.285 150.948 189.42 150.708 190.727 150.708C192.014 150.708 193.128 150.911 194.087 151.328C195.04 151.74 195.847 152.307 196.509 153.031C197.17 153.76 197.681 154.599 198.05 155.547C198.415 156.495 198.644 157.505 198.738 158.578H196.066C196.056 157.609 195.852 156.714 195.457 155.891C195.066 155.063 194.483 154.401 193.701 153.896C192.925 153.391 191.931 153.141 190.727 153.141C189.524 153.141 188.55 153.438 187.795 154.026C187.045 154.615 186.493 155.411 186.139 156.417C185.785 157.427 185.608 158.563 185.608 159.833C185.608 161.927 186.009 163.568 186.816 164.76C187.618 165.948 188.925 166.542 190.727 166.542C191.931 166.542 192.936 166.208 193.743 165.531C194.545 164.859 195.071 163.729 195.321 162.146H190.868V159.833H200.186V168.604H197.988V162.146H197.576C197.498 163 197.321 163.828 197.04 164.641C196.759 165.453 196.352 166.182 195.821 166.839C195.29 167.49 194.608 168.01 193.769 168.396C192.936 168.786 191.92 168.979 190.727 168.979C189.42 168.979 188.285 168.734 187.316 168.25C186.347 167.766 185.54 167.104 184.889 166.26C184.243 165.417 183.759 164.443 183.441 163.344C183.118 162.245 182.957 161.073 182.957 159.833Z" fill="black"/>
<path d="M214.615 168.937C212.969 168.937 211.594 168.589 210.505 167.885C209.411 167.187 208.594 166.198 208.052 164.917C207.51 163.635 207.234 162.12 207.234 160.38V150.964H209.786V160.38C209.786 161.677 209.922 162.766 210.188 163.651C210.458 164.531 210.943 165.203 211.641 165.661C212.344 166.12 213.333 166.349 214.615 166.349C215.911 166.349 216.906 166.12 217.609 165.661C218.307 165.203 218.792 164.531 219.057 163.651C219.328 162.766 219.464 161.677 219.464 160.38V150.964H222.01V160.38C222.01 162.12 221.74 163.635 221.198 164.917C220.656 166.198 219.839 167.187 218.745 167.885C217.651 168.589 216.276 168.937 214.615 168.937Z" fill="black"/>
<path d="M231.633 168.604V150.943H229.081V168.604H231.633Z" fill="black"/>
<path d="M238.713 168.604V150.964H244.62C245.802 150.964 246.885 151.057 247.88 151.25C248.875 151.437 249.739 151.797 250.469 152.328C251.203 152.854 251.771 153.63 252.177 154.651C252.583 155.672 252.786 157.005 252.786 158.656V160.714C252.786 162.375 252.583 163.729 252.177 164.766C251.771 165.807 251.203 166.604 250.469 167.161C249.739 167.719 248.875 168.099 247.88 168.302C246.885 168.505 245.802 168.604 244.62 168.604H238.713ZM241.265 166.286H244.62C245.578 166.286 246.396 166.214 247.083 166.062C247.771 165.911 248.338 165.635 248.781 165.24C249.229 164.839 249.552 164.276 249.765 163.542C249.974 162.807 250.078 161.865 250.078 160.714V158.656C250.078 157.516 249.974 156.594 249.765 155.891C249.552 155.182 249.229 154.641 248.781 154.26C248.338 153.88 247.771 153.62 247.083 153.484C246.396 153.349 245.578 153.276 244.62 153.276H241.265V166.286Z" fill="black"/>
<path d="M272.062 150.943H259.854V168.604H272.062V166.016H262.427V161.146H269.312V158.557H262.385L262.427 153.531H272.062V150.943Z" fill="black"/>
</svg>
